<?xml version="1.0" encoding="utf-8"?>
<!-- Generator: Adobe Illustrator 24.1.1, SVG Export Plug-In . SVG Version: 6.00 Build 0)  -->
<svg version="1.1" id="Calque_1" xmlns="http://www.w3.org/2000/svg" xmlns:xlink="http://www.w3.org/1999/xlink" x="0px" y="0px"
	 viewBox="0 0 512 512" style="enable-background:new 0 0 512 512;" xml:space="preserve">
<style type="text/css">
	.st0{fill:#3E9AFF;}
	.st1{display:none;}
	.st2{display:inline;}
</style>
<g id="Page-1">
	<g id="_x31_18---Forward" transform="translate(0 -1)">
		<path id="Shape" class="st0" d="M38.9,291c0,120,95,218.3,214.5,221.9c119.5,3.5,220.2-89,227.2-208.8s-82.2-223.5-201.3-234
			L305.1,48c7.1-6.1,8-16.9,1.9-24.1s-16.8-8-24-1.9l-59.5,51.2c-3.8,3.2-6,8-6,13s2.2,9.7,6,13l59.5,51.2c7.1,6.1,17.9,5.3,24-1.9
			c6.1-7.2,5.3-17.9-1.9-24.1l-23-19.8c99.8,11.9,172.4,100.7,164.4,201.2c-7.9,100.5-93.5,176.8-193.9,172.8
			c-100.4-4-179.7-86.8-179.7-187.6c-0.1-42.2,14-83.2,40.2-116.3c5.8-7.4,4.6-18.1-2.8-24s-18.1-4.6-23.9,2.8
			C55.5,192.6,38.7,241.1,38.9,291L38.9,291z"/>
		<path id="Shape_1_" class="st0" d="M86.5,153.6c3.1-4,7.9-6.4,12.9-6.5c5.1-0.1,9.9,2,13.2,5.9c-0.2,0.2-0.4,0.4-0.6,0.7
			C81,192.6,64.3,241.1,64.4,291c0.1,117.5,91.4,214.6,208.3,221.5c-4.3,0.2-8.5,0.4-12.8,0.4C138,512.8,39.1,413.5,38.9,291
			C38.7,241.1,55.5,192.6,86.5,153.6L86.5,153.6z"/>
		<path id="Shape_2_" class="st0" d="M107,86.2c0,5,2.2,9.7,6,13l59.5,51.2c7.1,6.1,17.9,5.3,24-1.9c6.1-7.2,5.3-17.9-1.9-24.1
			l-44.5-38.2L194.5,48c7.1-6.1,8-16.9,1.9-24.1s-16.8-8-24-1.9l-59.5,51.2C109.1,76.5,106.9,81.3,107,86.2L107,86.2z"/>
		<path id="Shape_3_" class="st0" d="M213.3,350.9h-8.5V205.8c0-6.3-3.5-12.1-9-15s-12.3-2.6-17.5,0.8l-25.6,17.1
			c-7.7,5.1-10,15.4-5.1,23.2c4.9,7.8,15.1,10.4,23.1,5.7v113.2h-8.5c-9.4,0-17.1,7.6-17.1,17.1s7.6,17.1,17.1,17.1h51.2
			c9.4,0,17.1-7.6,17.1-17.1S222.8,350.9,213.3,350.9L213.3,350.9z"/>
		<path id="Shape_4_" class="st0" d="M324.3,188.7h-25.6c-23.6,0-42.7,19.1-42.7,42.7v110.9c0,23.6,19.1,42.7,42.7,42.7h25.6
			c23.6,0,42.7-19.1,42.7-42.7V231.4C366.9,207.8,347.8,188.7,324.3,188.7z M332.8,342.3c0,4.7-3.8,8.5-8.5,8.5h-25.6
			c-4.7,0-8.5-3.8-8.5-8.5V231.4c0-4.7,3.8-8.5,8.5-8.5h25.6c4.7,0,8.5,3.8,8.5,8.5V342.3z"/>
		<g class="st1">
			<path id="Shape_5_" class="st2" d="M25.6,282.6C25.6,409.8,128.8,513,256,513s230.4-103.2,230.4-230.4
				c0.2-51.8-17.3-102.2-49.6-142.8c-5.7-7.2-14.7-10.8-23.8-9.5s-16.7,7.4-20.1,15.9c-3.4,8.5-2,18.2,3.7,25.3
				c25.1,31.6,38.7,70.7,38.5,111c0,92.1-69.8,169.2-161.4,178.3S98.5,408.3,80.3,318s35-179.6,123-206.7
				c-9.1,9.5-9.5,24.4-0.9,34.4c9.4,10.4,25.2,11.6,36.1,2.8l59.7-51.2c5.7-4.9,8.9-12,8.9-19.4c0-7.5-3.3-14.6-8.9-19.4L238.5,7.2
				c-6.9-6.2-16.6-8.1-25.4-5.1c-8.8,3-15.2,10.5-16.8,19.6s1.7,18.4,8.9,24.3l11.2,9.6C106.5,75.5,26.3,170.9,25.6,282.6
				L25.6,282.6z M237.2,70.1c3.4-0.3,6.3-2.6,7.4-5.9c1-3.3,0-6.8-2.6-9.1l-25.7-22.1c-3.6-3.1-4-8.4-0.9-12c1.5-1.7,3.6-2.8,5.8-3
				c2.3-0.2,4.5,0.6,6.2,2l59.7,51.2c1.9,1.6,3,4,3,6.5c0,2.5-1.1,4.9-3,6.5l-59.7,51.2c-1.5,1.3-3.5,2.1-5.6,2.1
				c-3.6,0-6.8-2.2-8-5.6c-1.2-3.3-0.3-7.1,2.4-9.4l23.1-19.8c2.9-2.4,3.8-6.5,2.3-9.9c-1.5-3.4-5.1-5.5-8.8-5
				C128.2,100.2,52,193,60.3,298.1s98.1,184.8,203.4,180.7S452.3,388,452.3,282.6c0.2-44.2-14.7-87.1-42.2-121.6
				c-1.9-2.4-2.4-5.6-1.2-8.4c1.1-2.8,3.7-4.8,6.7-5.3c3-0.4,6,0.8,7.9,3.2c29.9,37.6,46.1,84.2,45.9,132.2
				c0,115.4-91.7,209.9-207.1,213.3C146.9,499.3,49.8,410.3,43,295.2S122.3,80.3,237.2,70.1L237.2,70.1z"/>
			<path id="Shape_6_" class="st2" d="M313.4,145.7c9.2,10.7,25.4,12,36.1,2.8l59.7-51.2c5.7-4.9,8.9-12,8.9-19.4
				c0-7.5-3.3-14.6-8.9-19.4L349.5,7.2c-6.9-6.2-16.6-8.1-25.4-5.1c-8.8,3-15.2,10.5-16.8,19.6c-1.6,9.1,1.7,18.4,8.9,24.3
				l37.1,31.8l-37.1,31.8c-5.2,4.4-8.3,10.7-8.9,17.5S308.9,140.5,313.4,145.7z M327.2,122.5l44.6-38.2c1.9-1.6,3-4,3-6.5
				s-1.1-4.9-3-6.5l-44.6-38.2c-3.6-3.1-4-8.4-0.9-12c1.5-1.7,3.6-2.8,5.8-3c2.3-0.2,4.5,0.6,6.2,2l59.7,51.2c1.9,1.6,3,4,3,6.5
				c0,2.5-1.1,4.9-3,6.5l-59.7,51.2c-1.5,1.3-3.5,2.1-5.6,2.1c-2.5,0-4.9-1.1-6.5-3c-1.5-1.7-2.2-4-2-6.2
				C324.5,126.1,325.5,124,327.2,122.5L327.2,122.5z"/>
			<path id="Shape_7_" class="st2" d="M136.5,367.9c0,14.1,11.5,25.6,25.6,25.6h51.2c14.1,0,25.6-11.5,25.6-25.6
				s-11.5-25.6-25.6-25.6V205.8c0-9.4-5.2-18.1-13.5-22.6s-18.4-4-26.3,1.3l-25.6,17.1c-9.4,6.2-13.6,17.9-10.4,28.7
				c3.3,10.8,13.3,18.2,24.6,18.2v93.9C148,342.3,136.5,353.8,136.5,367.9z M174.9,230.3c-2.6-1.5-5.9-1.5-8.5,0
				c-3.9,2.3-8.9,1.1-11.4-2.7c-1.3-1.9-1.7-4.2-1.3-6.4c0.4-2.2,1.8-4.2,3.6-5.4l25.6-17.1c2.6-1.7,6-1.9,8.8-0.4
				c2.8,1.5,4.5,4.4,4.5,7.5v145.1c0,4.7,3.8,8.5,8.5,8.5h8.5c4.7,0,8.5,3.8,8.5,8.5s-3.8,8.5-8.5,8.5h-51.2c-4.7,0-8.5-3.8-8.5-8.5
				s3.8-8.5,8.5-8.5h8.5c4.7,0,8.5-3.8,8.5-8.5V237.6C179.2,234.6,177.6,231.8,174.9,230.3L174.9,230.3z"/>
			<path id="Shape_8_" class="st2" d="M247.5,231.4v110.9c0,28.3,22.9,51.2,51.2,51.2h25.6c28.3,0,51.2-22.9,51.2-51.2V231.4
				c0-28.3-22.9-51.2-51.2-51.2h-25.6C270.4,180.2,247.5,203.1,247.5,231.4z M358.4,231.4v110.9c0,18.9-15.3,34.1-34.1,34.1h-25.6
				c-18.9,0-34.1-15.3-34.1-34.1V231.4c0-18.9,15.3-34.1,34.1-34.1h25.6C343.1,197.3,358.4,212.5,358.4,231.4z"/>
			<path id="Shape_9_" class="st2" d="M281.6,231.4v110.9c0,9.4,7.6,17.1,17.1,17.1h25.6c9.4,0,17.1-7.6,17.1-17.1V231.4
				c0-9.4-7.6-17.1-17.1-17.1h-25.6C289.2,214.3,281.6,222,281.6,231.4z M324.3,342.3h-25.6V231.4h25.6V342.3z"/>
		</g>
	</g>
</g>
</svg>
