<?xml version="1.0" encoding="utf-8"?>
<!-- Generator: Adobe Illustrator 24.1.1, SVG Export Plug-In . SVG Version: 6.00 Build 0)  -->
<svg version="1.1" id="Calque_1" xmlns="http://www.w3.org/2000/svg" xmlns:xlink="http://www.w3.org/1999/xlink" x="0px" y="0px"
	 viewBox="0 0 512 512" style="enable-background:new 0 0 512 512;" xml:space="preserve">
<style type="text/css">
	.st0{display:none;fill:#3E9AFF;}
	.st1{display:none;fill:#0677C4;}
	.st2{display:none;fill:#FFFFFF;enable-background:new    ;}
	.st3{font-family:'ArialMT';}
	.st4{font-size:72.007px;}
	.st5{fill:#0EB8E0;}
</style>
<path class="st0" d="M437,61H75C33.6,61,0,94.6,0,136v240c0,41.4,33.6,75,75,75h362c41.4,0,75-33.6,75-75V136
	C512,94.6,478.4,61,437,61z"/>
<path class="st1" d="M512,136v240c0,41.4-33.6,75-75,75H256V61h181C478.4,61,512,94.6,512,136z"/>
<path class="st0" d="M260.7,176.3L174,128.1v235.8l86.7-49.9l122.1-70L260.7,176.3z"/>
<text transform="matrix(1 0 0 1 142.0869 450.6191)" class="st2 st3 st4">C A S A</text>
<rect x="174" y="128.1" class="st5" width="59" height="235.8"/>
<rect x="323.8" y="128.1" class="st5" width="59" height="235.8"/>
</svg>
