<?xml version="1.0" encoding="utf-8"?>
<!-- Generator: Adobe Illustrator 24.1.1, SVG Export Plug-In . SVG Version: 6.00 Build 0)  -->
<svg version="1.1" id="Layer_1" xmlns="http://www.w3.org/2000/svg" xmlns:xlink="http://www.w3.org/1999/xlink" x="0px" y="0px"
	 viewBox="0 0 473.7 473.7" style="enable-background:new 0 0 473.7 473.7;" xml:space="preserve">
<style type="text/css">
	.st0{display:none;fill:#E79E2D;}
	.st1{fill:#3E9AFF;}
</style>
<circle class="st0" cx="236.8" cy="236.8" r="236.8"/>
<g>
	<path class="st1" d="M207.8,318.9c-13.8,0-27.5,0-41.3,0c16.1-16.1,32.3-32.3,48.4-48.4c10.2-10.2-5.7-26-16-15.8
		c-16.1,16.1-32.2,32.2-48.3,48.3c0-13.7,0-27.4,0-41.2c0-14.5-22.4-14.6-22.4-0.2c0,22.8,0,45.6,0,68.3c0,6.1,5,11.3,11.1,11.3
		c22.8,0,45.6,0,68.3,0C222.1,341.4,222.2,318.9,207.8,318.9z"/>
	<path class="st1" d="M336.3,122c-22.8,0-45.6,0-68.3,0c-14.5,0-14.6,22.4-0.2,22.4c13.8,0,27.5,0,41.3,0
		c-16.1,16.1-32.3,32.3-48.4,48.4c-10.2,10.2,5.7,26,16,15.8c16.1-16.1,32.2-32.2,48.3-48.3c0,13.7,0,27.4,0,41.2
		c0,14.5,22.4,14.6,22.4,0.2c0-22.8,0-45.5,0-68.3C347.5,127.3,342.5,122,336.3,122z"/>
	<path class="st1" d="M392.6,113.7c0-1.3-0.2-2.4-0.5-3.5c-4-22-20.8-29.2-41.9-29.2c-22.5,0-45,0-67.6,0c-53,0-105.9,0-158.9,0
		c-22.1,0-39.8,7.8-42.6,32.5c-1.5,12.7,0,26.4,0,39.2c0,56.9,0,113.9,0,170.8c0,13.7-1,27.7,0.6,41.3c2.7,23.4,24.4,27.7,43.5,27.7
		c53.6,0,107.2,0,160.7,0c21.9,0,43.7,0,65.6,0c20.2,0,41.1-8.6,41.1-32.5c0-42.9,0-85.8,0-128.8c0-38.3,0-76.6,0-114.9
		C392.7,115.5,392.7,114.6,392.6,113.7z M360.1,370.1c-12.7,1.5-26.4,0-39.2,0c-28.6,0-57.3,0-85.9,0c-28.3,0-56.6,0-84.9,0
		c-8.7,0-44.8,6.1-46.6-10c-1.5-12.7,0-26.4,0-39.2c0-28.6,0-57.3,0-85.9c0-28.3,0-56.6,0-84.9c0-8.7-6.1-44.8,10-46.6
		c12.7-1.5,26.4,0,39.2,0c28.6,0,57.3,0,85.9,0c28.3,0,56.6,0,84.9,0c8.7,0,44.8-6.1,46.6,10c0,41.7,0,83.4,0,125.1
		c0,28.3,0,56.6,0,84.9C370.1,332.2,376.2,368.3,360.1,370.1z"/>
</g>
</svg>
