<?xml version="1.0" encoding="utf-8"?>
<!-- Generator: Adobe Illustrator 24.1.1, SVG Export Plug-In . SVG Version: 6.00 Build 0)  -->
<svg version="1.1" id="Calque_1" xmlns="http://www.w3.org/2000/svg" xmlns:xlink="http://www.w3.org/1999/xlink" x="0px" y="0px"
	 viewBox="0 0 512 512" style="enable-background:new 0 0 512 512;" xml:space="preserve">
<style type="text/css">
	.st0{fill:#3E9AFF;}
	.st1{fill:#0677C4;}
	.st2{fill:#D8D8D8;}
	.st3{fill:#ECECF1;}
	.st4{fill:#FFFFFF;}
	.st5{font-family:'MyriadPro-Regular';}
	.st6{font-size:68.7715px;}
</style>
<path class="st0" d="M437,61H75C33.6,61,0,94.6,0,136v240c0,41.4,33.6,75,75,75h362c41.4,0,75-33.6,75-75V136
	C512,94.6,478.4,61,437,61z"/>
<path class="st1" d="M512,136v240c0,41.4-33.6,75-75,75H256V61h181C478.4,61,512,94.6,512,136z"/>
<path class="st2" d="M361.6,255.7L256,316.3V197.2L361.6,255.7z"/>
<path class="st3" d="M215.4,197.5l-75-41.7v204l75-43.2L321,256L215.4,197.5z"/>
<text transform="matrix(1 0 0 1 155.0878 433.842)" class="st4 st5 st6">C A S A</text>
</svg>
